<mxfile host="app.diagrams.net" modified="2022-08-21T08:08:18.447Z" agent="5.0 (Macintosh; Intel Mac OS X 10_15_7) AppleWebKit/537.36 (KHTML, like Gecko) Chrome/104.0.0.0 Safari/537.36" etag="duzD2BANBtn7ja7vvJoW" version="20.2.3" type="github">
  <diagram id="7pBkX4s3fST_nyu4PBlY" name="第 1 页">
    <mxGraphModel dx="2286" dy="849" grid="0" gridSize="10" guides="1" tooltips="1" connect="1" arrows="1" fold="1" page="0" pageScale="1" pageWidth="827" pageHeight="1169" math="0" shadow="0">
      <root>
        <mxCell id="0" />
        <mxCell id="1" parent="0" />
        <mxCell id="pjWi9ppOUHUrqtf-zeMz-1" value="2" style="rounded=0;whiteSpace=wrap;html=1;" vertex="1" parent="1">
          <mxGeometry x="240" y="140" width="40" height="30" as="geometry" />
        </mxCell>
        <mxCell id="pjWi9ppOUHUrqtf-zeMz-2" value="6" style="rounded=0;whiteSpace=wrap;html=1;" vertex="1" parent="1">
          <mxGeometry x="280" y="140" width="40" height="30" as="geometry" />
        </mxCell>
        <mxCell id="pjWi9ppOUHUrqtf-zeMz-3" value="5" style="rounded=0;whiteSpace=wrap;html=1;" vertex="1" parent="1">
          <mxGeometry x="320" y="140" width="40" height="30" as="geometry" />
        </mxCell>
        <mxCell id="pjWi9ppOUHUrqtf-zeMz-4" value="数组" style="text;html=1;align=center;verticalAlign=middle;resizable=0;points=[];autosize=1;strokeColor=none;fillColor=none;" vertex="1" parent="1">
          <mxGeometry x="150" y="140" width="50" height="30" as="geometry" />
        </mxCell>
        <mxCell id="pjWi9ppOUHUrqtf-zeMz-5" value="问题：通过递归函数求出数组中元素之和" style="text;html=1;align=center;verticalAlign=middle;resizable=0;points=[];autosize=1;strokeColor=none;fillColor=none;" vertex="1" parent="1">
          <mxGeometry x="155" y="68" width="240" height="30" as="geometry" />
        </mxCell>
        <mxCell id="pjWi9ppOUHUrqtf-zeMz-6" value="思想：分而治之-递归式问题的解决方法" style="text;html=1;align=center;verticalAlign=middle;resizable=0;points=[];autosize=1;strokeColor=none;fillColor=none;" vertex="1" parent="1">
          <mxGeometry x="130" y="250" width="230" height="30" as="geometry" />
        </mxCell>
        <mxCell id="pjWi9ppOUHUrqtf-zeMz-7" value="其工作原理：&lt;br&gt;1、找出简单的基线条件&lt;br&gt;2、确定如何缩小问题的规模，使其符合基线条件" style="text;html=1;align=left;verticalAlign=middle;resizable=0;points=[];autosize=1;strokeColor=none;fillColor=none;" vertex="1" parent="1">
          <mxGeometry x="140" y="290" width="280" height="60" as="geometry" />
        </mxCell>
        <mxCell id="pjWi9ppOUHUrqtf-zeMz-8" value="&lt;meta charset=&quot;utf-8&quot;&gt;&lt;span style=&quot;color: rgb(0, 0, 0); font-family: Helvetica; font-size: 12px; font-style: normal; font-variant-ligatures: normal; font-variant-caps: normal; font-weight: 400; letter-spacing: normal; orphans: 2; text-align: left; text-indent: 0px; text-transform: none; widows: 2; word-spacing: 0px; -webkit-text-stroke-width: 0px; background-color: rgb(248, 249, 250); text-decoration-thickness: initial; text-decoration-style: initial; text-decoration-color: initial; float: none; display: inline !important;&quot;&gt;1、找出简单的基线条件&lt;/span&gt;" style="text;whiteSpace=wrap;html=1;" vertex="1" parent="1">
          <mxGeometry x="140" y="400" width="160" height="40" as="geometry" />
        </mxCell>
        <mxCell id="pjWi9ppOUHUrqtf-zeMz-9" value="基线条件" style="text;html=1;align=center;verticalAlign=middle;resizable=0;points=[];autosize=1;strokeColor=none;fillColor=none;" vertex="1" parent="1">
          <mxGeometry x="185" y="495" width="70" height="30" as="geometry" />
        </mxCell>
        <mxCell id="pjWi9ppOUHUrqtf-zeMz-10" value="" style="shape=curlyBracket;whiteSpace=wrap;html=1;rounded=1;" vertex="1" parent="1">
          <mxGeometry x="260" y="450" width="20" height="120" as="geometry" />
        </mxCell>
        <mxCell id="pjWi9ppOUHUrqtf-zeMz-12" value="数组为空：之和为0" style="text;html=1;align=center;verticalAlign=middle;resizable=0;points=[];autosize=1;strokeColor=none;fillColor=none;" vertex="1" parent="1">
          <mxGeometry x="284" y="435" width="130" height="30" as="geometry" />
        </mxCell>
        <mxCell id="pjWi9ppOUHUrqtf-zeMz-13" value="数组中只有一个元素：之和为该元素" style="text;html=1;align=center;verticalAlign=middle;resizable=0;points=[];autosize=1;strokeColor=none;fillColor=none;" vertex="1" parent="1">
          <mxGeometry x="290" y="555" width="220" height="30" as="geometry" />
        </mxCell>
        <mxCell id="pjWi9ppOUHUrqtf-zeMz-14" value="2、每次递归调用都必须离空数组更近一步" style="text;html=1;align=center;verticalAlign=middle;resizable=0;points=[];autosize=1;strokeColor=none;fillColor=none;" vertex="1" parent="1">
          <mxGeometry x="128" y="608" width="250" height="30" as="geometry" />
        </mxCell>
        <mxCell id="pjWi9ppOUHUrqtf-zeMz-15" value="2+sum()" style="text;html=1;align=center;verticalAlign=middle;resizable=0;points=[];autosize=1;strokeColor=none;fillColor=none;" vertex="1" parent="1">
          <mxGeometry x="165" y="655" width="70" height="30" as="geometry" />
        </mxCell>
        <mxCell id="pjWi9ppOUHUrqtf-zeMz-16" value="6" style="rounded=0;whiteSpace=wrap;html=1;" vertex="1" parent="1">
          <mxGeometry x="220" y="655" width="40" height="30" as="geometry" />
        </mxCell>
        <mxCell id="pjWi9ppOUHUrqtf-zeMz-17" value="5" style="rounded=0;whiteSpace=wrap;html=1;" vertex="1" parent="1">
          <mxGeometry x="260" y="655" width="40" height="30" as="geometry" />
        </mxCell>
        <mxCell id="pjWi9ppOUHUrqtf-zeMz-18" value="&amp;nbsp; &amp;nbsp; &amp;nbsp; &amp;nbsp; &amp;nbsp; &amp;nbsp; &amp;nbsp; &amp;nbsp; &amp;nbsp; &amp;nbsp; &amp;nbsp;）= 2 + 11= 13" style="text;html=1;align=center;verticalAlign=middle;resizable=0;points=[];autosize=1;strokeColor=none;fillColor=none;" vertex="1" parent="1">
          <mxGeometry x="225" y="655" width="170" height="30" as="geometry" />
        </mxCell>
        <mxCell id="pjWi9ppOUHUrqtf-zeMz-19" value="Sum(&amp;nbsp; &amp;nbsp; )" style="text;html=1;align=center;verticalAlign=middle;resizable=0;points=[];autosize=1;strokeColor=none;fillColor=none;" vertex="1" parent="1">
          <mxGeometry x="138" y="787" width="64" height="26" as="geometry" />
        </mxCell>
        <mxCell id="pjWi9ppOUHUrqtf-zeMz-23" value="2" style="rounded=0;whiteSpace=wrap;html=1;" vertex="1" parent="1">
          <mxGeometry x="180" y="785" width="40" height="30" as="geometry" />
        </mxCell>
        <mxCell id="pjWi9ppOUHUrqtf-zeMz-24" value="6" style="rounded=0;whiteSpace=wrap;html=1;" vertex="1" parent="1">
          <mxGeometry x="220" y="785" width="40" height="30" as="geometry" />
        </mxCell>
        <mxCell id="pjWi9ppOUHUrqtf-zeMz-25" value="5" style="rounded=0;whiteSpace=wrap;html=1;" vertex="1" parent="1">
          <mxGeometry x="260" y="785" width="40" height="30" as="geometry" />
        </mxCell>
        <mxCell id="pjWi9ppOUHUrqtf-zeMz-26" value="&amp;nbsp; &amp;nbsp; &amp;nbsp;&lt;br&gt;&amp;nbsp; &amp;nbsp; &amp;nbsp; )" style="text;html=1;align=center;verticalAlign=middle;resizable=0;points=[];autosize=1;strokeColor=none;fillColor=none;" vertex="1" parent="1">
          <mxGeometry x="280" y="777" width="42" height="41" as="geometry" />
        </mxCell>
        <mxCell id="pjWi9ppOUHUrqtf-zeMz-28" value="2+sum()" style="text;html=1;align=center;verticalAlign=middle;resizable=0;points=[];autosize=1;strokeColor=none;fillColor=none;" vertex="1" parent="1">
          <mxGeometry x="160" y="855" width="70" height="30" as="geometry" />
        </mxCell>
        <mxCell id="pjWi9ppOUHUrqtf-zeMz-29" value="6" style="rounded=0;whiteSpace=wrap;html=1;" vertex="1" parent="1">
          <mxGeometry x="215" y="855" width="40" height="30" as="geometry" />
        </mxCell>
        <mxCell id="pjWi9ppOUHUrqtf-zeMz-37" value="" style="edgeStyle=orthogonalEdgeStyle;rounded=0;orthogonalLoop=1;jettySize=auto;html=1;" edge="1" parent="1" source="pjWi9ppOUHUrqtf-zeMz-30" target="pjWi9ppOUHUrqtf-zeMz-36">
          <mxGeometry relative="1" as="geometry" />
        </mxCell>
        <mxCell id="pjWi9ppOUHUrqtf-zeMz-30" value="5" style="rounded=0;whiteSpace=wrap;html=1;" vertex="1" parent="1">
          <mxGeometry x="255" y="855" width="40" height="30" as="geometry" />
        </mxCell>
        <mxCell id="pjWi9ppOUHUrqtf-zeMz-31" value=")" style="text;html=1;align=center;verticalAlign=middle;resizable=0;points=[];autosize=1;strokeColor=none;fillColor=none;" vertex="1" parent="1">
          <mxGeometry x="291" y="860" width="22" height="26" as="geometry" />
        </mxCell>
        <mxCell id="pjWi9ppOUHUrqtf-zeMz-34" value="6+ sum(&amp;nbsp;&amp;nbsp;" style="text;html=1;align=center;verticalAlign=middle;resizable=0;points=[];autosize=1;strokeColor=none;fillColor=none;" vertex="1" parent="1">
          <mxGeometry x="202" y="924" width="68" height="26" as="geometry" />
        </mxCell>
        <mxCell id="pjWi9ppOUHUrqtf-zeMz-49" style="edgeStyle=orthogonalEdgeStyle;rounded=0;orthogonalLoop=1;jettySize=auto;html=1;entryX=0.5;entryY=0;entryDx=0;entryDy=0;" edge="1" parent="1" source="pjWi9ppOUHUrqtf-zeMz-36" target="pjWi9ppOUHUrqtf-zeMz-46">
          <mxGeometry relative="1" as="geometry" />
        </mxCell>
        <mxCell id="pjWi9ppOUHUrqtf-zeMz-50" value="基线条件！" style="edgeLabel;html=1;align=center;verticalAlign=middle;resizable=0;points=[];" vertex="1" connectable="0" parent="pjWi9ppOUHUrqtf-zeMz-49">
          <mxGeometry x="-0.1429" y="-1" relative="1" as="geometry">
            <mxPoint as="offset" />
          </mxGeometry>
        </mxCell>
        <mxCell id="pjWi9ppOUHUrqtf-zeMz-36" value="5" style="rounded=0;whiteSpace=wrap;html=1;" vertex="1" parent="1">
          <mxGeometry x="255" y="922" width="40" height="30" as="geometry" />
        </mxCell>
        <mxCell id="pjWi9ppOUHUrqtf-zeMz-40" value="）" style="text;html=1;align=center;verticalAlign=middle;resizable=0;points=[];autosize=1;strokeColor=none;fillColor=none;" vertex="1" parent="1">
          <mxGeometry x="288" y="923" width="30" height="26" as="geometry" />
        </mxCell>
        <mxCell id="pjWi9ppOUHUrqtf-zeMz-46" value="5" style="rounded=0;whiteSpace=wrap;html=1;" vertex="1" parent="1">
          <mxGeometry x="255" y="1008" width="40" height="30" as="geometry" />
        </mxCell>
        <mxCell id="pjWi9ppOUHUrqtf-zeMz-56" style="edgeStyle=orthogonalEdgeStyle;rounded=0;orthogonalLoop=1;jettySize=auto;html=1;entryX=0.366;entryY=0.827;entryDx=0;entryDy=0;entryPerimeter=0;" edge="1" parent="1" source="pjWi9ppOUHUrqtf-zeMz-47" target="pjWi9ppOUHUrqtf-zeMz-53">
          <mxGeometry relative="1" as="geometry" />
        </mxCell>
        <mxCell id="pjWi9ppOUHUrqtf-zeMz-47" value="） = 5&amp;nbsp;" style="text;html=1;align=center;verticalAlign=middle;resizable=0;points=[];autosize=1;strokeColor=none;fillColor=none;" vertex="1" parent="1">
          <mxGeometry x="278" y="1015" width="54" height="26" as="geometry" />
        </mxCell>
        <mxCell id="pjWi9ppOUHUrqtf-zeMz-52" value="" style="edgeStyle=orthogonalEdgeStyle;rounded=0;orthogonalLoop=1;jettySize=auto;html=1;" edge="1" parent="1" source="pjWi9ppOUHUrqtf-zeMz-48" target="pjWi9ppOUHUrqtf-zeMz-51">
          <mxGeometry relative="1" as="geometry" />
        </mxCell>
        <mxCell id="pjWi9ppOUHUrqtf-zeMz-48" value="sum（" style="text;html=1;align=center;verticalAlign=middle;resizable=0;points=[];autosize=1;strokeColor=none;fillColor=none;" vertex="1" parent="1">
          <mxGeometry x="205" y="1012" width="53" height="26" as="geometry" />
        </mxCell>
        <mxCell id="pjWi9ppOUHUrqtf-zeMz-51" value="这个函数调用&lt;br&gt;最先完成" style="ellipse;whiteSpace=wrap;html=1;" vertex="1" parent="1">
          <mxGeometry x="38.5" y="995" width="120" height="60" as="geometry" />
        </mxCell>
        <mxCell id="pjWi9ppOUHUrqtf-zeMz-57" style="edgeStyle=orthogonalEdgeStyle;rounded=0;orthogonalLoop=1;jettySize=auto;html=1;entryX=0.44;entryY=0.942;entryDx=0;entryDy=0;entryPerimeter=0;" edge="1" parent="1" source="pjWi9ppOUHUrqtf-zeMz-53" target="pjWi9ppOUHUrqtf-zeMz-54">
          <mxGeometry relative="1" as="geometry">
            <Array as="points">
              <mxPoint x="432" y="911" />
              <mxPoint x="432" y="911" />
            </Array>
          </mxGeometry>
        </mxCell>
        <mxCell id="pjWi9ppOUHUrqtf-zeMz-53" value="6+ 5 =&amp;nbsp; 11" style="text;html=1;align=center;verticalAlign=middle;resizable=0;points=[];autosize=1;strokeColor=none;fillColor=none;" vertex="1" parent="1">
          <mxGeometry x="371" y="918" width="71" height="26" as="geometry" />
        </mxCell>
        <mxCell id="pjWi9ppOUHUrqtf-zeMz-59" style="edgeStyle=orthogonalEdgeStyle;rounded=0;orthogonalLoop=1;jettySize=auto;html=1;entryX=0.581;entryY=0.981;entryDx=0;entryDy=0;entryPerimeter=0;" edge="1" parent="1" source="pjWi9ppOUHUrqtf-zeMz-54" target="pjWi9ppOUHUrqtf-zeMz-55">
          <mxGeometry relative="1" as="geometry">
            <Array as="points">
              <mxPoint x="463" y="849" />
              <mxPoint x="463" y="849" />
            </Array>
          </mxGeometry>
        </mxCell>
        <mxCell id="pjWi9ppOUHUrqtf-zeMz-54" value="2+ 11 = 13" style="text;html=1;align=center;verticalAlign=middle;resizable=0;points=[];autosize=1;strokeColor=none;fillColor=none;" vertex="1" parent="1">
          <mxGeometry x="399" y="857" width="75" height="26" as="geometry" />
        </mxCell>
        <mxCell id="pjWi9ppOUHUrqtf-zeMz-55" value="13" style="text;html=1;align=center;verticalAlign=middle;resizable=0;points=[];autosize=1;strokeColor=none;fillColor=none;" vertex="1" parent="1">
          <mxGeometry x="445" y="792" width="31" height="26" as="geometry" />
        </mxCell>
        <mxCell id="pjWi9ppOUHUrqtf-zeMz-61" value="" style="endArrow=classic;html=1;rounded=0;entryX=0.047;entryY=0.5;entryDx=0;entryDy=0;entryPerimeter=0;" edge="1" parent="1" target="pjWi9ppOUHUrqtf-zeMz-19">
          <mxGeometry width="50" height="50" relative="1" as="geometry">
            <mxPoint x="5" y="756" as="sourcePoint" />
            <mxPoint x="167" y="800" as="targetPoint" />
          </mxGeometry>
        </mxCell>
        <mxCell id="pjWi9ppOUHUrqtf-zeMz-64" value="" style="endArrow=classic;html=1;rounded=0;entryX=0.514;entryY=0.267;entryDx=0;entryDy=0;entryPerimeter=0;" edge="1" parent="1" target="pjWi9ppOUHUrqtf-zeMz-28">
          <mxGeometry width="50" height="50" relative="1" as="geometry">
            <mxPoint x="4" y="757" as="sourcePoint" />
            <mxPoint x="151.0079999999998" y="810" as="targetPoint" />
          </mxGeometry>
        </mxCell>
        <mxCell id="pjWi9ppOUHUrqtf-zeMz-65" value="遇到基线条件前，这些函数都没完成！" style="ellipse;whiteSpace=wrap;html=1;" vertex="1" parent="1">
          <mxGeometry x="-111" y="732" width="120" height="60" as="geometry" />
        </mxCell>
        <mxCell id="pjWi9ppOUHUrqtf-zeMz-66" value="" style="endArrow=classic;html=1;rounded=0;entryX=0.042;entryY=0.231;entryDx=0;entryDy=0;entryPerimeter=0;" edge="1" parent="1" target="pjWi9ppOUHUrqtf-zeMz-53">
          <mxGeometry width="50" height="50" relative="1" as="geometry">
            <mxPoint x="356" y="773" as="sourcePoint" />
            <mxPoint x="406" y="723" as="targetPoint" />
          </mxGeometry>
        </mxCell>
        <mxCell id="pjWi9ppOUHUrqtf-zeMz-67" value="" style="endArrow=classic;html=1;rounded=0;entryX=0.04;entryY=0.462;entryDx=0;entryDy=0;entryPerimeter=0;" edge="1" parent="1" target="pjWi9ppOUHUrqtf-zeMz-54">
          <mxGeometry width="50" height="50" relative="1" as="geometry">
            <mxPoint x="356" y="773" as="sourcePoint" />
            <mxPoint x="383.98199999999997" y="934.0060000000001" as="targetPoint" />
          </mxGeometry>
        </mxCell>
        <mxCell id="pjWi9ppOUHUrqtf-zeMz-68" value="递归保存了这些未完成的函数调用的状态" style="ellipse;whiteSpace=wrap;html=1;" vertex="1" parent="1">
          <mxGeometry x="305" y="712" width="120" height="60" as="geometry" />
        </mxCell>
      </root>
    </mxGraphModel>
  </diagram>
</mxfile>
